<svg width="407" height="435" version="1.1" xmlns="http://www.w3.org/2000/svg" desc="Created with imagetracer.js version 1.2.6" ><path fill="rgb(46,46,46)" stroke="rgb(46,46,46)" stroke-width="1" opacity="0.9803921568627451" d="M 149.5 3 L 154.5 3 L 313.5 111 L 407 200.5 L 407 208.5 L 405.5 210 L 400 209 L 398.5 206 L 312.5 124 L 310 126.5 L 321.5 138 L 381 194.5 L 381 229.5 L 382 230.5 L 382 371.5 L 379.5 374 L 364.5 379 L 313.5 394 L 185.5 435 L 171.5 435 L 28 325 L 27 322.5 L 27 213.5 L 28 212.5 L 28 190 L 4 171.5 L 3 166.5 L 149.5 3 Z M 153 15 L 16 167 L 16 169 L 163 286 L 304 118 L 177 30 L 153 15 Z M 304 134 L 181 279 L 181 425 L 372 366 L 372 209 L 371 208 L 371 199 L 304 134 Z M 39 198 L 37 201 L 37 319 L 169 420 L 171 422 L 171 291 L 165 298 Q 160 299 159 296 L 39 198 Z " /><path fill="rgb(60,74,87)" stroke="rgb(60,74,87)" stroke-width="1" opacity="1" d="M 155.5 16 L 156.5 18 L 155.5 16 Z " /><path fill="rgb(60,74,87)" stroke="rgb(60,74,87)" stroke-width="1" opacity="1" d="M 158.5 18 L 159.5 20 L 158.5 18 Z " /><path fill="rgb(60,74,87)" stroke="rgb(60,74,87)" stroke-width="1" opacity="1" d="M 148.5 19 L 143.5 25 L 148.5 19 Z " /><path fill="rgb(60,74,87)" stroke="rgb(60,74,87)" stroke-width="1" opacity="1" d="M 161.5 20 L 162.5 22 L 161.5 20 Z " /><path fill="rgb(60,74,87)" stroke="rgb(60,74,87)" stroke-width="1" opacity="1" d="M 164.5 22 L 165.5 24 L 164.5 22 Z " /><path fill="rgb(60,74,87)" stroke="rgb(60,74,87)" stroke-width="1" opacity="1" d="M 167.5 24 L 168.5 26 L 167.5 24 Z " /><path fill="rgb(60,74,87)" stroke="rgb(60,74,87)" stroke-width="1" opacity="1" d="M 170.5 26 L 179 32.5 L 176.5 31 Q 171.5 29.5 170.5 26 Z " /><path fill="rgb(60,74,87)" stroke="rgb(60,74,87)" stroke-width="1" opacity="1" d="M 139.5 29 L 135.5 34 L 139.5 29 Z " /><path fill="rgb(60,74,87)" stroke="rgb(60,74,87)" stroke-width="1" opacity="1" d="M 180.5 33 L 181.5 35 L 180.5 33 Z " /><path fill="rgb(60,74,87)" stroke="rgb(60,74,87)" stroke-width="1" opacity="1" d="M 183.5 35 L 184.5 37 L 183.5 35 Z " /><path fill="rgb(60,74,87)" stroke="rgb(60,74,87)" stroke-width="1" opacity="1" d="M 186.5 37 L 187.5 39 L 186.5 37 Z " /><path fill="rgb(60,74,87)" stroke="rgb(60,74,87)" stroke-width="1" opacity="1" d="M 131.5 38 L 127.5 43 L 131.5 38 Z " /><path fill="rgb(60,74,87)" stroke="rgb(60,74,87)" stroke-width="1" opacity="1" d="M 189.5 39 L 190.5 41 L 189.5 39 Z " /><path fill="rgb(60,74,87)" stroke="rgb(60,74,87)" stroke-width="1" opacity="1" d="M 192.5 41 L 193.5 43 L 192.5 41 Z " /><path fill="rgb(60,74,87)" stroke="rgb(60,74,87)" stroke-width="1" opacity="1" d="M 195.5 43 L 207 51.5 L 204.5 50 Q 197.4 47.7 195.5 43 Z " /><path fill="rgb(60,74,87)" stroke="rgb(60,74,87)" stroke-width="1" opacity="1" d="M 122.5 48 L 118.5 53 L 122.5 48 Z " /><path fill="rgb(60,74,87)" stroke="rgb(60,74,87)" stroke-width="1" opacity="1" d="M 208.5 52 L 209.5 54 L 208.5 52 Z " /><path fill="rgb(60,74,87)" stroke="rgb(60,74,87)" stroke-width="1" opacity="1" d="M 211.5 54 L 212.5 56 L 211.5 54 Z " /><path fill="rgb(60,74,87)" stroke="rgb(60,74,87)" stroke-width="1" opacity="1" d="M 214.5 56 L 215.5 58 L 214.5 56 Z " /><path fill="rgb(60,74,87)" stroke="rgb(60,74,87)" stroke-width="1" opacity="1" d="M 114.5 57 L 110.5 62 L 114.5 57 Z " /><path fill="rgb(60,74,87)" stroke="rgb(60,74,87)" stroke-width="1" opacity="1" d="M 217.5 58 L 218.5 60 L 217.5 58 Z " /><path fill="rgb(60,74,87)" stroke="rgb(60,74,87)" stroke-width="1" opacity="1" d="M 220.5 60 L 232 68.5 L 229.5 67 Q 222.4 64.7 220.5 60 Z " /><path fill="rgb(60,74,87)" stroke="rgb(60,74,87)" stroke-width="1" opacity="1" d="M 105.5 67 L 101.5 72 L 105.5 67 Z " /><path fill="rgb(60,74,87)" stroke="rgb(60,74,87)" stroke-width="1" opacity="1" d="M 233.5 69 L 234.5 71 L 233.5 69 Z " /><path fill="rgb(60,74,87)" stroke="rgb(60,74,87)" stroke-width="1" opacity="1" d="M 236.5 71 L 237.5 73 L 236.5 71 Z " /><path fill="rgb(60,74,87)" stroke="rgb(60,74,87)" stroke-width="1" opacity="1" d="M 239.5 73 L 240.5 75 L 239.5 73 Z " /><path fill="rgb(60,74,87)" stroke="rgb(60,74,87)" stroke-width="1" opacity="1" d="M 242.5 75 L 243.5 77 L 242.5 75 Z " /><path fill="rgb(60,74,87)" stroke="rgb(60,74,87)" stroke-width="1" opacity="1" d="M 97.5 76 L 93.5 81 L 97.5 76 Z " /><path fill="rgb(60,74,87)" stroke="rgb(60,74,87)" stroke-width="1" opacity="1" d="M 245.5 77 L 246.5 79 L 245.5 77 Z " /><path fill="rgb(60,74,87)" stroke="rgb(60,74,87)" stroke-width="1" opacity="1" d="M 248.5 79 L 260 87.5 L 257.5 86 Q 250.4 83.7 248.5 79 Z " /><path fill="rgb(60,74,87)" stroke="rgb(60,74,87)" stroke-width="1" opacity="1" d="M 88.5 86 L 84.5 91 L 88.5 86 Z " /><path fill="rgb(60,74,87)" stroke="rgb(60,74,87)" stroke-width="1" opacity="1" d="M 261.5 88 L 262.5 90 L 261.5 88 Z " /><path fill="rgb(60,74,87)" stroke="rgb(60,74,87)" stroke-width="1" opacity="1" d="M 264.5 90 L 265.5 92 L 264.5 90 Z " /><path fill="rgb(60,74,87)" stroke="rgb(60,74,87)" stroke-width="1" opacity="1" d="M 267.5 92 L 268.5 94 L 267.5 92 Z " /><path fill="rgb(60,74,87)" stroke="rgb(60,74,87)" stroke-width="1" opacity="1" d="M 270.5 94 L 271.5 96 L 270.5 94 Z " /><path fill="rgb(60,74,87)" stroke="rgb(60,74,87)" stroke-width="1" opacity="1" d="M 80.5 95 L 76.5 100 L 80.5 95 Z " /><path fill="rgb(60,74,87)" stroke="rgb(60,74,87)" stroke-width="1" opacity="1" d="M 273.5 96 L 285 104.5 L 282.5 103 Q 275.4 100.7 273.5 96 Z " /><path fill="rgb(60,74,87)" stroke="rgb(60,74,87)" stroke-width="1" opacity="1" d="M 71.5 105 L 67.5 110 L 71.5 105 Z " /><path fill="rgb(60,74,87)" stroke="rgb(60,74,87)" stroke-width="1" opacity="1" d="M 286.5 105 L 287.5 107 L 286.5 105 Z " /><path fill="rgb(60,74,87)" stroke="rgb(60,74,87)" stroke-width="1" opacity="1" d="M 289.5 107 L 290.5 109 L 289.5 107 Z " /><path fill="rgb(60,74,87)" stroke="rgb(60,74,87)" stroke-width="1" opacity="1" d="M 292.5 109 L 293.5 111 L 292.5 109 Z " /><path fill="rgb(60,74,87)" stroke="rgb(60,74,87)" stroke-width="1" opacity="1" d="M 295.5 111 L 296.5 113 L 295.5 111 Z " /><path fill="rgb(60,74,87)" stroke="rgb(60,74,87)" stroke-width="1" opacity="1" d="M 298.5 113 L 299.5 115 L 298.5 113 Z " /><path fill="rgb(60,74,87)" stroke="rgb(60,74,87)" stroke-width="1" opacity="1" d="M 63.5 114 L 59.5 119 L 63.5 114 Z " /><path fill="rgb(60,74,87)" stroke="rgb(60,74,87)" stroke-width="1" opacity="1" d="M 301.5 115 L 304 118.5 L 301 120.5 L 303 117.5 L 301.5 115 Z " /><path fill="rgb(60,74,87)" stroke="rgb(60,74,87)" stroke-width="1" opacity="1" d="M 300.5 122 L 296.5 127 L 300.5 122 Z " /><path fill="rgb(60,74,87)" stroke="rgb(60,74,87)" stroke-width="1" opacity="1" d="M 54.5 124 L 50.5 129 L 54.5 124 Z " /><path fill="rgb(60,74,87)" stroke="rgb(60,74,87)" stroke-width="1" opacity="1" d="M 312.5 124 L 400 207.5 L 381 208 L 381 194.5 L 368.5 182 L 310 126.5 L 312.5 124 Z " /><path fill="rgb(60,74,87)" stroke="rgb(60,74,87)" stroke-width="1" opacity="1" d="M 294.5 129 L 290.5 134 L 294.5 129 Z " /><path fill="rgb(60,74,87)" stroke="rgb(60,74,87)" stroke-width="1" opacity="1" d="M 46.5 133 L 42.5 138 L 46.5 133 Z " /><path fill="rgb(60,74,87)" stroke="rgb(60,74,87)" stroke-width="1" opacity="1" d="M 289.5 135 L 285.5 140 L 289.5 135 Z " /><path fill="rgb(60,74,87)" stroke="rgb(60,74,87)" stroke-width="1" opacity="1" d="M 307.5 137 L 314.5 145 L 307.5 137 Z " /><path fill="rgb(60,74,87)" stroke="rgb(60,74,87)" stroke-width="1" opacity="1" d="M 299.5 138 L 298.5 140 L 299.5 138 Z " /><path fill="rgb(60,74,87)" stroke="rgb(60,74,87)" stroke-width="1" opacity="1" d="M 283.5 142 L 279.5 147 L 283.5 142 Z " /><path fill="rgb(60,74,87)" stroke="rgb(60,74,87)" stroke-width="1" opacity="1" d="M 37.5 143 L 33.5 148 L 37.5 143 Z " /><path fill="rgb(60,74,87)" stroke="rgb(60,74,87)" stroke-width="1" opacity="1" d="M 294.5 144 L 293.5 146 L 294.5 144 Z " /><path fill="rgb(60,74,87)" stroke="rgb(60,74,87)" stroke-width="1" opacity="1" d="M 278.5 148 L 274.5 153 L 278.5 148 Z " /><path fill="rgb(60,74,87)" stroke="rgb(60,74,87)" stroke-width="1" opacity="1" d="M 289.5 150 L 287.5 153 L 289.5 150 Z " /><path fill="rgb(60,74,87)" stroke="rgb(60,74,87)" stroke-width="1" opacity="1" d="M 29.5 152 L 25.5 157 L 29.5 152 Z " /><path fill="rgb(60,74,87)" stroke="rgb(60,74,87)" stroke-width="1" opacity="1" d="M 272.5 155 L 268.5 160 L 272.5 155 Z " /><path fill="rgb(60,74,87)" stroke="rgb(60,74,87)" stroke-width="1" opacity="1" d="M 283.5 157 L 282.5 159 L 283.5 157 Z " /><path fill="rgb(60,74,87)" stroke="rgb(60,74,87)" stroke-width="1" opacity="1" d="M 330.5 159 L 337.5 167 L 330.5 159 Z " /><path fill="rgb(60,74,87)" stroke="rgb(60,74,87)" stroke-width="1" opacity="1" d="M 267.5 161 L 263.5 166 L 267.5 161 Z " /><path fill="rgb(60,74,87)" stroke="rgb(60,74,87)" stroke-width="1" opacity="1" d="M 20.5 162 L 16.5 167 L 20.5 162 Z " /><path fill="rgb(60,74,87)" stroke="rgb(60,74,87)" stroke-width="1" opacity="1" d="M 278.5 163 L 277.5 165 L 278.5 163 Z " /><path fill="rgb(60,74,87)" stroke="rgb(60,74,87)" stroke-width="1" opacity="1" d="M 262.5 167 L 258.5 172 L 262.5 167 Z " /><path fill="rgb(60,74,87)" stroke="rgb(60,74,87)" stroke-width="1" opacity="1" d="M 19.5 170 L 21.5 173 L 19.5 170 Z " /><path fill="rgb(60,74,87)" stroke="rgb(60,74,87)" stroke-width="1" opacity="1" d="M 272.5 170 L 271.5 172 L 272.5 170 Z " /><path fill="rgb(60,74,87)" stroke="rgb(60,74,87)" stroke-width="1" opacity="1" d="M 256.5 174 L 252.5 179 L 256.5 174 Z " /><path fill="rgb(60,74,87)" stroke="rgb(60,74,87)" stroke-width="1" opacity="1" d="M 25.5 175 L 26.5 177 L 25.5 175 Z " /><path fill="rgb(60,74,87)" stroke="rgb(60,74,87)" stroke-width="1" opacity="1" d="M 267.5 176 L 266.5 178 L 267.5 176 Z " /><path fill="rgb(60,74,87)" stroke="rgb(60,74,87)" stroke-width="1" opacity="1" d="M 30.5 179 L 32.5 182 L 30.5 179 Z " /><path fill="rgb(60,74,87)" stroke="rgb(60,74,87)" stroke-width="1" opacity="1" d="M 251.5 180 L 247.5 185 L 251.5 180 Z " /><path fill="rgb(60,74,87)" stroke="rgb(60,74,87)" stroke-width="1" opacity="1" d="M 353.5 181 L 360.5 189 L 353.5 181 Z " /><path fill="rgb(60,74,87)" stroke="rgb(60,74,87)" stroke-width="1" opacity="1" d="M 35.5 183 L 37.5 186 L 35.5 183 Z " /><path fill="rgb(60,74,87)" stroke="rgb(60,74,87)" stroke-width="1" opacity="1" d="M 261.5 183 L 260.5 185 L 261.5 183 Z " /><path fill="rgb(60,74,87)" stroke="rgb(60,74,87)" stroke-width="1" opacity="1" d="M 245.5 187 L 241.5 192 L 245.5 187 Z " /><path fill="rgb(60,74,87)" stroke="rgb(60,74,87)" stroke-width="1" opacity="1" d="M 41.5 188 L 42.5 190 L 41.5 188 Z " /><path fill="rgb(60,74,87)" stroke="rgb(60,74,87)" stroke-width="1" opacity="1" d="M 256.5 189 L 255.5 191 L 256.5 189 Z " /><path fill="rgb(60,74,87)" stroke="rgb(60,74,87)" stroke-width="1" opacity="1" d="M 46.5 192 L 47.5 194 L 46.5 192 Z " /><path fill="rgb(60,74,87)" stroke="rgb(60,74,87)" stroke-width="1" opacity="1" d="M 240.5 193 L 236.5 198 L 240.5 193 Z " /><path fill="rgb(60,74,87)" stroke="rgb(60,74,87)" stroke-width="1" opacity="1" d="M 251.5 195 L 249.5 198 L 251.5 195 Z " /><path fill="rgb(60,74,87)" stroke="rgb(60,74,87)" stroke-width="1" opacity="1" d="M 51.5 196 L 53.5 199 L 51.5 196 Z " /><path fill="rgb(60,74,87)" stroke="rgb(60,74,87)" stroke-width="1" opacity="1" d="M 38.5 198 L 40.5 201 L 38.5 198 Z " /><path fill="rgb(60,74,87)" stroke="rgb(60,74,87)" stroke-width="1" opacity="1" d="M 37.5 200 L 38 229.5 L 37 229.5 L 37.5 200 Z " /><path fill="rgb(60,74,87)" stroke="rgb(60,74,87)" stroke-width="1" opacity="1" d="M 56.5 200 L 58.5 203 L 56.5 200 Z " /><path fill="rgb(60,74,87)" stroke="rgb(60,74,87)" stroke-width="1" opacity="1" d="M 234.5 200 L 230.5 205 L 234.5 200 Z " /><path fill="rgb(60,74,87)" stroke="rgb(60,74,87)" stroke-width="1" opacity="1" d="M 245.5 202 L 244.5 204 L 245.5 202 Z " /><path fill="rgb(60,74,87)" stroke="rgb(60,74,87)" stroke-width="1" opacity="1" d="M 44.5 203 L 45.5 205 L 44.5 203 Z " /><path fill="rgb(60,74,87)" stroke="rgb(60,74,87)" stroke-width="1" opacity="1" d="M 62.5 205 L 63.5 207 L 62.5 205 Z " /><path fill="rgb(60,74,87)" stroke="rgb(60,74,87)" stroke-width="1" opacity="1" d="M 229.5 206 L 225.5 211 L 229.5 206 Z " /><path fill="rgb(60,74,87)" stroke="rgb(60,74,87)" stroke-width="1" opacity="1" d="M 49.5 207 L 50.5 209 L 49.5 207 Z " /><path fill="rgb(60,74,87)" stroke="rgb(60,74,87)" stroke-width="1" opacity="1" d="M 240.5 208 L 239.5 210 L 240.5 208 Z " /><path fill="rgb(60,74,87)" stroke="rgb(60,74,87)" stroke-width="1" opacity="1" d="M 371.5 208 L 372 229.5 L 371 229.5 L 371.5 208 Z " /><path fill="rgb(60,74,87)" stroke="rgb(60,74,87)" stroke-width="1" opacity="1" d="M 67.5 209 L 68.5 211 L 67.5 209 Z " /><path fill="rgb(60,74,87)" stroke="rgb(60,74,87)" stroke-width="1" opacity="1" d="M 54.5 211 L 55.5 213 L 54.5 211 Z " /><path fill="rgb(60,74,87)" stroke="rgb(60,74,87)" stroke-width="1" opacity="1" d="M 224.5 212 L 220.5 217 L 224.5 212 Z " /><path fill="rgb(60,74,87)" stroke="rgb(60,74,87)" stroke-width="1" opacity="1" d="M 72.5 213 L 74.5 216 L 72.5 213 Z " /><path fill="rgb(60,74,87)" stroke="rgb(60,74,87)" stroke-width="1" opacity="1" d="M 59.5 215 L 61.5 218 L 59.5 215 Z " /><path fill="rgb(60,74,87)" stroke="rgb(60,74,87)" stroke-width="1" opacity="1" d="M 234.5 215 L 233.5 217 L 234.5 215 Z " /><path fill="rgb(60,74,87)" stroke="rgb(60,74,87)" stroke-width="1" opacity="1" d="M 77.5 217 L 79.5 220 L 77.5 217 Z " /><path fill="rgb(60,74,87)" stroke="rgb(60,74,87)" stroke-width="1" opacity="1" d="M 218.5 219 L 214.5 224 L 218.5 219 Z " /><path fill="rgb(60,74,87)" stroke="rgb(60,74,87)" stroke-width="1" opacity="1" d="M 65.5 220 L 66.5 222 L 65.5 220 Z " /><path fill="rgb(60,74,87)" stroke="rgb(60,74,87)" stroke-width="1" opacity="1" d="M 229.5 221 L 228.5 223 L 229.5 221 Z " /><path fill="rgb(60,74,87)" stroke="rgb(60,74,87)" stroke-width="1" opacity="1" d="M 83.5 222 L 84.5 224 L 83.5 222 Z " /><path fill="rgb(60,74,87)" stroke="rgb(60,74,87)" stroke-width="1" opacity="1" d="M 70.5 224 L 71.5 226 L 70.5 224 Z " /><path fill="rgb(60,74,87)" stroke="rgb(60,74,87)" stroke-width="1" opacity="1" d="M 213.5 225 L 209.5 230 L 213.5 225 Z " /><path fill="rgb(60,74,87)" stroke="rgb(60,74,87)" stroke-width="1" opacity="1" d="M 88.5 226 L 89.5 228 L 88.5 226 Z " /><path fill="rgb(60,74,87)" stroke="rgb(60,74,87)" stroke-width="1" opacity="1" d="M 224.5 227 L 222.5 230 L 224.5 227 Z " /><path fill="rgb(60,74,87)" stroke="rgb(60,74,87)" stroke-width="1" opacity="1" d="M 75.5 228 L 76.5 230 L 75.5 228 Z " /><path fill="rgb(60,74,87)" stroke="rgb(60,74,87)" stroke-width="1" opacity="1" d="M 93.5 230 L 95.5 233 L 93.5 230 Z " /><path fill="rgb(60,74,87)" stroke="rgb(60,74,87)" stroke-width="1" opacity="1" d="M 80.5 232 L 82.5 235 L 80.5 232 Z " /><path fill="rgb(60,74,87)" stroke="rgb(60,74,87)" stroke-width="1" opacity="1" d="M 207.5 232 L 203.5 237 L 207.5 232 Z " /><path fill="rgb(60,74,87)" stroke="rgb(60,74,87)" stroke-width="1" opacity="1" d="M 98.5 234 L 100.5 237 L 98.5 234 Z " /><path fill="rgb(60,74,87)" stroke="rgb(60,74,87)" stroke-width="1" opacity="1" d="M 218.5 234 L 217.5 236 L 218.5 234 Z " /><path fill="rgb(60,74,87)" stroke="rgb(60,74,87)" stroke-width="1" opacity="1" d="M 86.5 237 L 87.5 239 L 86.5 237 Z " /><path fill="rgb(60,74,87)" stroke="rgb(60,74,87)" stroke-width="1" opacity="1" d="M 202.5 238 L 198.5 243 L 202.5 238 Z " /><path fill="rgb(60,74,87)" stroke="rgb(60,74,87)" stroke-width="1" opacity="1" d="M 104.5 239 L 105.5 241 L 104.5 239 Z " /><path fill="rgb(60,74,87)" stroke="rgb(60,74,87)" stroke-width="1" opacity="1" d="M 213.5 240 L 212.5 242 L 213.5 240 Z " /><path fill="rgb(60,74,87)" stroke="rgb(60,74,87)" stroke-width="1" opacity="1" d="M 91.5 241 L 92.5 243 L 91.5 241 Z " /><path fill="rgb(60,74,87)" stroke="rgb(60,74,87)" stroke-width="1" opacity="1" d="M 109.5 243 L 110.5 245 L 109.5 243 Z " /><path fill="rgb(60,74,87)" stroke="rgb(60,74,87)" stroke-width="1" opacity="1" d="M 197.5 244 L 193.5 249 L 197.5 244 Z " /><path fill="rgb(60,74,87)" stroke="rgb(60,74,87)" stroke-width="1" opacity="1" d="M 96.5 245 L 97.5 247 L 96.5 245 Z " /><path fill="rgb(60,74,87)" stroke="rgb(60,74,87)" stroke-width="1" opacity="1" d="M 114.5 247 L 116.5 250 L 114.5 247 Z " /><path fill="rgb(60,74,87)" stroke="rgb(60,74,87)" stroke-width="1" opacity="1" d="M 207.5 247 L 206.5 249 L 207.5 247 Z " /><path fill="rgb(60,74,87)" stroke="rgb(60,74,87)" stroke-width="1" opacity="1" d="M 101.5 249 L 103.5 252 L 101.5 249 Z " /><path fill="rgb(60,74,87)" stroke="rgb(60,74,87)" stroke-width="1" opacity="1" d="M 119.5 251 L 121.5 254 L 119.5 251 Z " /><path fill="rgb(60,74,87)" stroke="rgb(60,74,87)" stroke-width="1" opacity="1" d="M 191.5 251 L 187.5 256 L 191.5 251 Z " /><path fill="rgb(60,74,87)" stroke="rgb(60,74,87)" stroke-width="1" opacity="1" d="M 202.5 253 L 201.5 255 L 202.5 253 Z " /><path fill="rgb(60,74,87)" stroke="rgb(60,74,87)" stroke-width="1" opacity="1" d="M 107.5 254 L 108.5 256 L 107.5 254 Z " /><path fill="rgb(60,74,87)" stroke="rgb(60,74,87)" stroke-width="1" opacity="1" d="M 125.5 256 L 126.5 258 L 125.5 256 Z " /><path fill="rgb(60,74,87)" stroke="rgb(60,74,87)" stroke-width="1" opacity="1" d="M 186.5 257 L 182.5 262 L 186.5 257 Z " /><path fill="rgb(60,74,87)" stroke="rgb(60,74,87)" stroke-width="1" opacity="1" d="M 112.5 258 L 113.5 260 L 112.5 258 Z " /><path fill="rgb(60,74,87)" stroke="rgb(60,74,87)" stroke-width="1" opacity="1" d="M 130.5 260 L 132.5 263 L 130.5 260 Z " /><path fill="rgb(60,74,87)" stroke="rgb(60,74,87)" stroke-width="1" opacity="1" d="M 196.5 260 L 195.5 262 L 196.5 260 Z " /><path fill="rgb(60,74,87)" stroke="rgb(60,74,87)" stroke-width="1" opacity="1" d="M 117.5 262 L 118.5 264 L 117.5 262 Z " /><path fill="rgb(60,74,87)" stroke="rgb(60,74,87)" stroke-width="1" opacity="1" d="M 135.5 264 L 137.5 267 L 135.5 264 Z " /><path fill="rgb(60,74,87)" stroke="rgb(60,74,87)" stroke-width="1" opacity="1" d="M 180.5 264 L 176.5 269 L 180.5 264 Z " /><path fill="rgb(60,74,87)" stroke="rgb(60,74,87)" stroke-width="1" opacity="1" d="M 191.5 266 L 190.5 268 L 191.5 266 Z " /><path fill="rgb(60,74,87)" stroke="rgb(60,74,87)" stroke-width="1" opacity="1" d="M 123.5 267 L 124.5 269 L 123.5 267 Z " /><path fill="rgb(60,74,87)" stroke="rgb(60,74,87)" stroke-width="1" opacity="1" d="M 140.5 268 L 142.5 271 L 140.5 268 Z " /><path fill="rgb(60,74,87)" stroke="rgb(60,74,87)" stroke-width="1" opacity="1" d="M 175.5 270 L 171.5 275 L 175.5 270 Z " /><path fill="rgb(60,74,87)" stroke="rgb(60,74,87)" stroke-width="1" opacity="1" d="M 128.5 271 L 129.5 273 L 128.5 271 Z " /><path fill="rgb(60,74,87)" stroke="rgb(60,74,87)" stroke-width="1" opacity="1" d="M 186.5 272 L 184.5 275 L 186.5 272 Z " /><path fill="rgb(60,74,87)" stroke="rgb(60,74,87)" stroke-width="1" opacity="1" d="M 146.5 273 L 147.5 275 L 146.5 273 Z " /><path fill="rgb(60,74,87)" stroke="rgb(60,74,87)" stroke-width="1" opacity="1" d="M 133.5 275 L 134.5 277 L 133.5 275 Z " /><path fill="rgb(60,74,87)" stroke="rgb(60,74,87)" stroke-width="1" opacity="1" d="M 151.5 277 L 153.5 280 L 151.5 277 Z " /><path fill="rgb(60,74,87)" stroke="rgb(60,74,87)" stroke-width="1" opacity="1" d="M 169.5 277 L 165.5 282 L 169.5 277 Z " /><path fill="rgb(60,74,87)" stroke="rgb(60,74,87)" stroke-width="1" opacity="1" d="M 138.5 279 L 139.5 281 L 138.5 279 Z " /><path fill="rgb(60,74,87)" stroke="rgb(60,74,87)" stroke-width="1" opacity="1" d="M 156.5 281 L 158.5 284 L 156.5 281 Z " /><path fill="rgb(60,74,87)" stroke="rgb(60,74,87)" stroke-width="1" opacity="1" d="M 164.5 283 L 162.5 286 L 161 285.5 L 164.5 283 Z " /><path fill="rgb(60,74,87)" stroke="rgb(60,74,87)" stroke-width="1" opacity="1" d="M 144.5 284 L 145.5 286 L 144.5 284 Z " /><path fill="rgb(60,74,87)" stroke="rgb(60,74,87)" stroke-width="1" opacity="1" d="M 149.5 288 L 150.5 290 L 149.5 288 Z " /><path fill="rgb(60,74,87)" stroke="rgb(60,74,87)" stroke-width="1" opacity="1" d="M 170.5 291 L 168.5 294 L 170.5 291 Z " /><path fill="rgb(60,74,87)" stroke="rgb(60,74,87)" stroke-width="1" opacity="1" d="M 154.5 292 L 155.5 294 L 154.5 292 Z " /><path fill="rgb(60,74,87)" stroke="rgb(60,74,87)" stroke-width="1" opacity="1" d="M 159.5 296 L 160.5 298 L 159.5 296 Z " /><path fill="rgb(60,74,87)" stroke="rgb(60,74,87)" stroke-width="1" opacity="1" d="M 39.5 320 L 40.5 322 L 39.5 320 Z " /><path fill="rgb(60,74,87)" stroke="rgb(60,74,87)" stroke-width="1" opacity="1" d="M 43.5 323 L 44.5 325 L 43.5 323 Z " /><path fill="rgb(60,74,87)" stroke="rgb(60,74,87)" stroke-width="1" opacity="1" d="M 52.5 330 L 53.5 332 L 52.5 330 Z " /><path fill="rgb(60,74,87)" stroke="rgb(60,74,87)" stroke-width="1" opacity="1" d="M 61.5 337 L 62.5 339 L 61.5 337 Z " /><path fill="rgb(60,74,87)" stroke="rgb(60,74,87)" stroke-width="1" opacity="1" d="M 65.5 340 L 66.5 342 L 65.5 340 Z " /><path fill="rgb(60,74,87)" stroke="rgb(60,74,87)" stroke-width="1" opacity="1" d="M 74.5 347 L 75.5 349 L 74.5 347 Z " /><path fill="rgb(60,74,87)" stroke="rgb(60,74,87)" stroke-width="1" opacity="1" d="M 83.5 354 L 84.5 356 L 83.5 354 Z " /><path fill="rgb(60,74,87)" stroke="rgb(60,74,87)" stroke-width="1" opacity="1" d="M 87.5 357 L 88.5 359 L 87.5 357 Z " /><path fill="rgb(60,74,87)" stroke="rgb(60,74,87)" stroke-width="1" opacity="1" d="M 96.5 364 L 97.5 366 L 96.5 364 Z " /><path fill="rgb(60,74,87)" stroke="rgb(60,74,87)" stroke-width="1" opacity="1" d="M 105.5 371 L 106.5 373 L 105.5 371 Z " /><path fill="rgb(60,74,87)" stroke="rgb(60,74,87)" stroke-width="1" opacity="1" d="M 109.5 374 L 110.5 376 L 109.5 374 Z " /><path fill="rgb(60,74,87)" stroke="rgb(60,74,87)" stroke-width="1" opacity="1" d="M 118.5 381 L 119.5 383 L 118.5 381 Z " /><path fill="rgb(60,74,87)" stroke="rgb(60,74,87)" stroke-width="1" opacity="1" d="M 127.5 388 L 128.5 390 L 127.5 388 Z " /><path fill="rgb(60,74,87)" stroke="rgb(60,74,87)" stroke-width="1" opacity="1" d="M 131.5 391 L 132.5 393 L 131.5 391 Z " /><path fill="rgb(60,74,87)" stroke="rgb(60,74,87)" stroke-width="1" opacity="1" d="M 136.5 395 L 137.5 397 L 136.5 395 Z " /><path fill="rgb(60,74,87)" stroke="rgb(60,74,87)" stroke-width="1" opacity="1" d="M 140.5 398 L 141.5 400 L 140.5 398 Z " /><path fill="rgb(60,74,87)" stroke="rgb(60,74,87)" stroke-width="1" opacity="1" d="M 149.5 405 L 150.5 407 L 149.5 405 Z " /><path fill="rgb(60,74,87)" stroke="rgb(60,74,87)" stroke-width="1" opacity="1" d="M 153.5 408 L 154.5 410 L 153.5 408 Z " /><path fill="rgb(60,74,87)" stroke="rgb(60,74,87)" stroke-width="1" opacity="1" d="M 158.5 412 L 159.5 414 L 158.5 412 Z " /><path fill="rgb(60,74,87)" stroke="rgb(60,74,87)" stroke-width="1" opacity="1" d="M 162.5 415 L 163.5 417 L 162.5 415 Z " /><path fill="rgb(62,83,104)" stroke="rgb(62,83,104)" stroke-width="1" opacity="1" d="M 152.5 15 L 303 117.5 L 296 127.5 L 162.5 285 L 160.5 285 L 145.5 273 L 16 167.5 L 152.5 15 Z " /><path fill="rgb(62,83,104)" stroke="rgb(62,83,104)" stroke-width="1" opacity="1" d="M 315.5 145 L 317.5 148 L 315.5 145 Z " /><path fill="rgb(62,83,104)" stroke="rgb(62,83,104)" stroke-width="1" opacity="1" d="M 338.5 167 L 340.5 170 L 338.5 167 Z " /><path fill="rgb(62,83,104)" stroke="rgb(62,83,104)" stroke-width="1" opacity="1" d="M 361.5 189 L 363.5 192 L 361.5 189 Z " /><path fill="rgb(62,83,104)" stroke="rgb(62,83,104)" stroke-width="1" opacity="1" d="M 46.5 205 L 47.5 207 L 46.5 205 Z " /><path fill="rgb(62,83,104)" stroke="rgb(62,83,104)" stroke-width="1" opacity="1" d="M 51.5 209 L 52.5 211 L 51.5 209 Z " /><path fill="rgb(62,83,104)" stroke="rgb(62,83,104)" stroke-width="1" opacity="1" d="M 56.5 213 L 57.5 215 L 56.5 213 Z " /><path fill="rgb(62,83,104)" stroke="rgb(62,83,104)" stroke-width="1" opacity="1" d="M 67.5 222 L 68.5 224 L 67.5 222 Z " /><path fill="rgb(62,83,104)" stroke="rgb(62,83,104)" stroke-width="1" opacity="1" d="M 72.5 226 L 73.5 228 L 72.5 226 Z " /><path fill="rgb(62,83,104)" stroke="rgb(62,83,104)" stroke-width="1" opacity="1" d="M 37.5 230 L 38 262.5 L 37 262.5 L 37.5 230 Z " /><path fill="rgb(62,83,104)" stroke="rgb(62,83,104)" stroke-width="1" opacity="1" d="M 77.5 230 L 78.5 232 L 77.5 230 Z " /><path fill="rgb(62,83,104)" stroke="rgb(62,83,104)" stroke-width="1" opacity="1" d="M 371.5 230 L 372 271.5 L 371 271.5 L 371.5 230 Z " /><path fill="rgb(62,83,104)" stroke="rgb(62,83,104)" stroke-width="1" opacity="1" d="M 88.5 239 L 89.5 241 L 88.5 239 Z " /><path fill="rgb(62,83,104)" stroke="rgb(62,83,104)" stroke-width="1" opacity="1" d="M 93.5 243 L 94.5 245 L 93.5 243 Z " /><path fill="rgb(62,83,104)" stroke="rgb(62,83,104)" stroke-width="1" opacity="1" d="M 98.5 247 L 99.5 249 L 98.5 247 Z " /><path fill="rgb(62,83,104)" stroke="rgb(62,83,104)" stroke-width="1" opacity="1" d="M 109.5 256 L 110.5 258 L 109.5 256 Z " /><path fill="rgb(62,83,104)" stroke="rgb(62,83,104)" stroke-width="1" opacity="1" d="M 114.5 260 L 115.5 262 L 114.5 260 Z " /><path fill="rgb(62,83,104)" stroke="rgb(62,83,104)" stroke-width="1" opacity="1" d="M 119.5 264 L 120.5 266 L 119.5 264 Z " /><path fill="rgb(62,83,104)" stroke="rgb(62,83,104)" stroke-width="1" opacity="1" d="M 130.5 273 L 131.5 275 L 130.5 273 Z " /><path fill="rgb(62,83,104)" stroke="rgb(62,83,104)" stroke-width="1" opacity="1" d="M 135.5 277 L 136.5 279 L 135.5 277 Z " /><path fill="rgb(62,83,104)" stroke="rgb(62,83,104)" stroke-width="1" opacity="1" d="M 140.5 281 L 141.5 283 L 140.5 281 Z " /><path fill="rgb(62,83,104)" stroke="rgb(62,83,104)" stroke-width="1" opacity="1" d="M 146.5 286 L 147.5 288 L 146.5 286 Z " /><path fill="rgb(62,83,104)" stroke="rgb(62,83,104)" stroke-width="1" opacity="1" d="M 151.5 290 L 152.5 292 L 151.5 290 Z " /><path fill="rgb(62,83,104)" stroke="rgb(62,83,104)" stroke-width="1" opacity="1" d="M 156.5 294 L 157.5 296 L 156.5 294 Z " /><path fill="rgb(62,83,104)" stroke="rgb(62,83,104)" stroke-width="1" opacity="1" d="M 167.5 295 L 165.5 298 L 167.5 295 Z " /><path fill="rgb(62,83,104)" stroke="rgb(62,83,104)" stroke-width="1" opacity="1" d="M 37.5 318 L 38.5 320 L 37.5 318 Z " /><path fill="rgb(62,83,104)" stroke="rgb(62,83,104)" stroke-width="1" opacity="1" d="M 46.5 325 L 47.5 327 L 46.5 325 Z " /><path fill="rgb(62,83,104)" stroke="rgb(62,83,104)" stroke-width="1" opacity="1" d="M 55.5 332 L 56.5 334 L 55.5 332 Z " /><path fill="rgb(62,83,104)" stroke="rgb(62,83,104)" stroke-width="1" opacity="1" d="M 59.5 335 L 60.5 337 L 59.5 335 Z " /><path fill="rgb(62,83,104)" stroke="rgb(62,83,104)" stroke-width="1" opacity="1" d="M 68.5 342 L 69.5 344 L 68.5 342 Z " /><path fill="rgb(62,83,104)" stroke="rgb(62,83,104)" stroke-width="1" opacity="1" d="M 77.5 349 L 78.5 351 L 77.5 349 Z " /><path fill="rgb(62,83,104)" stroke="rgb(62,83,104)" stroke-width="1" opacity="1" d="M 81.5 352 L 82.5 354 L 81.5 352 Z " /><path fill="rgb(62,83,104)" stroke="rgb(62,83,104)" stroke-width="1" opacity="1" d="M 90.5 359 L 91.5 361 L 90.5 359 Z " /><path fill="rgb(62,83,104)" stroke="rgb(62,83,104)" stroke-width="1" opacity="1" d="M 99.5 366 L 100.5 368 L 99.5 366 Z " /><path fill="rgb(62,83,104)" stroke="rgb(62,83,104)" stroke-width="1" opacity="1" d="M 103.5 369 L 104.5 371 L 103.5 369 Z " /><path fill="rgb(62,83,104)" stroke="rgb(62,83,104)" stroke-width="1" opacity="1" d="M 112.5 376 L 113.5 378 L 112.5 376 Z " /><path fill="rgb(62,83,104)" stroke="rgb(62,83,104)" stroke-width="1" opacity="1" d="M 121.5 383 L 122.5 385 L 121.5 383 Z " /><path fill="rgb(62,83,104)" stroke="rgb(62,83,104)" stroke-width="1" opacity="1" d="M 125.5 386 L 126.5 388 L 125.5 386 Z " /><path fill="rgb(62,83,104)" stroke="rgb(62,83,104)" stroke-width="1" opacity="1" d="M 134.5 393 L 135.5 395 L 134.5 393 Z " /><path fill="rgb(62,83,104)" stroke="rgb(62,83,104)" stroke-width="1" opacity="1" d="M 143.5 400 L 144.5 402 L 143.5 400 Z " /><path fill="rgb(62,83,104)" stroke="rgb(62,83,104)" stroke-width="1" opacity="1" d="M 156.5 410 L 157.5 412 L 156.5 410 Z " /><path fill="rgb(62,83,104)" stroke="rgb(62,83,104)" stroke-width="1" opacity="1" d="M 165.5 417 L 166.5 419 L 165.5 417 Z " /><path fill="rgb(0,0,0)" stroke="rgb(0,0,0)" stroke-width="1" opacity="0" d="M 0 0 L 407 0 L 407 199.5 L 393.5 187 L 313.5 111 L 154.5 3 L 149.5 3 L 7 161.5 L 3 166.5 L 3 169.5 L 5.5 173 L 28 190 L 28 212.5 L 27 213.5 L 27 322.5 L 28 325 L 171 434.5 L 0 435 L 0 0 Z " /><path fill="rgb(0,0,0)" stroke="rgb(0,0,0)" stroke-width="1" opacity="0" d="M 381 208 L 399.5 208 Q 400.9 210.6 405.5 210 L 407 209.5 L 407 435 L 186.5 435 L 186.5 434 L 361.5 379 L 364.5 379 L 379.5 374 L 382 371.5 L 382 230.5 L 381 229.5 L 381 208 Z " /><path fill="rgb(228,228,228)" stroke="rgb(228,228,228)" stroke-width="1" opacity="1" d="M 304.5 135 L 314.5 146 L 304.5 135 Z " /><path fill="rgb(228,228,228)" stroke="rgb(228,228,228)" stroke-width="1" opacity="1" d="M 300.5 138 L 298.5 141 L 300.5 138 Z " /><path fill="rgb(228,228,228)" stroke="rgb(228,228,228)" stroke-width="1" opacity="1" d="M 295.5 144 L 293.5 147 L 295.5 144 Z " /><path fill="rgb(228,228,228)" stroke="rgb(228,228,228)" stroke-width="1" opacity="1" d="M 289.5 151 L 287.5 154 L 289.5 151 Z " /><path fill="rgb(228,228,228)" stroke="rgb(228,228,228)" stroke-width="1" opacity="1" d="M 284.5 157 L 282.5 160 L 284.5 157 Z " /><path fill="rgb(228,228,228)" stroke="rgb(228,228,228)" stroke-width="1" opacity="1" d="M 327.5 157 L 337.5 168 L 327.5 157 Z " /><path fill="rgb(228,228,228)" stroke="rgb(228,228,228)" stroke-width="1" opacity="1" d="M 278.5 164 L 277.5 166 L 278.5 164 Z " /><path fill="rgb(228,228,228)" stroke="rgb(228,228,228)" stroke-width="1" opacity="1" d="M 273.5 170 L 271.5 173 L 273.5 170 Z " /><path fill="rgb(228,228,228)" stroke="rgb(228,228,228)" stroke-width="1" opacity="1" d="M 267.5 177 L 266.5 179 L 267.5 177 Z " /><path fill="rgb(228,228,228)" stroke="rgb(228,228,228)" stroke-width="1" opacity="1" d="M 350.5 179 L 360.5 190 L 350.5 179 Z " /><path fill="rgb(228,228,228)" stroke="rgb(228,228,228)" stroke-width="1" opacity="1" d="M 262.5 183 L 260.5 186 L 262.5 183 Z " /><path fill="rgb(228,228,228)" stroke="rgb(228,228,228)" stroke-width="1" opacity="1" d="M 257.5 189 L 255.5 192 L 257.5 189 Z " /><path fill="rgb(228,228,228)" stroke="rgb(228,228,228)" stroke-width="1" opacity="1" d="M 251.5 196 L 250.5 198 L 251.5 196 Z " /><path fill="rgb(228,228,228)" stroke="rgb(228,228,228)" stroke-width="1" opacity="1" d="M 246.5 202 L 244.5 205 L 246.5 202 Z " /><path fill="rgb(228,228,228)" stroke="rgb(228,228,228)" stroke-width="1" opacity="1" d="M 240.5 209 L 239.5 211 L 240.5 209 Z " /><path fill="rgb(228,228,228)" stroke="rgb(228,228,228)" stroke-width="1" opacity="1" d="M 235.5 215 L 233.5 218 L 235.5 215 Z " /><path fill="rgb(228,228,228)" stroke="rgb(228,228,228)" stroke-width="1" opacity="1" d="M 230.5 221 L 228.5 224 L 230.5 221 Z " /><path fill="rgb(228,228,228)" stroke="rgb(228,228,228)" stroke-width="1" opacity="1" d="M 224.5 228 L 222.5 231 L 224.5 228 Z " /><path fill="rgb(228,228,228)" stroke="rgb(228,228,228)" stroke-width="1" opacity="1" d="M 219.5 234 L 217.5 237 L 219.5 234 Z " /><path fill="rgb(228,228,228)" stroke="rgb(228,228,228)" stroke-width="1" opacity="1" d="M 213.5 241 L 212.5 243 L 213.5 241 Z " /><path fill="rgb(228,228,228)" stroke="rgb(228,228,228)" stroke-width="1" opacity="1" d="M 208.5 247 L 206.5 250 L 208.5 247 Z " /><path fill="rgb(228,228,228)" stroke="rgb(228,228,228)" stroke-width="1" opacity="1" d="M 202.5 254 L 201.5 256 L 202.5 254 Z " /><path fill="rgb(228,228,228)" stroke="rgb(228,228,228)" stroke-width="1" opacity="1" d="M 197.5 260 L 195.5 263 L 197.5 260 Z " /><path fill="rgb(228,228,228)" stroke="rgb(228,228,228)" stroke-width="1" opacity="1" d="M 192.5 266 L 190.5 269 L 192.5 266 Z " /><path fill="rgb(228,228,228)" stroke="rgb(228,228,228)" stroke-width="1" opacity="1" d="M 186.5 273 L 185.5 275 L 186.5 273 Z " /><path fill="rgb(228,228,228)" stroke="rgb(228,228,228)" stroke-width="1" opacity="1" d="M 371.5 336 L 372 358.5 L 371 358.5 L 371.5 336 Z " /><path fill="rgb(159,175,160)" stroke="rgb(159,175,160)" stroke-width="1" opacity="1" d="M 303.5 134 L 301.5 137 L 303.5 134 Z " /><path fill="rgb(159,175,160)" stroke="rgb(159,175,160)" stroke-width="1" opacity="1" d="M 297.5 141 L 296.5 143 L 297.5 141 Z " /><path fill="rgb(159,175,160)" stroke="rgb(159,175,160)" stroke-width="1" opacity="1" d="M 292.5 147 L 290.5 150 L 292.5 147 Z " /><path fill="rgb(159,175,160)" stroke="rgb(159,175,160)" stroke-width="1" opacity="1" d="M 318.5 148 L 326.5 157 L 318.5 148 Z " /><path fill="rgb(159,175,160)" stroke="rgb(159,175,160)" stroke-width="1" opacity="1" d="M 286.5 154 L 285.5 156 L 286.5 154 Z " /><path fill="rgb(159,175,160)" stroke="rgb(159,175,160)" stroke-width="1" opacity="1" d="M 281.5 160 L 279.5 163 L 281.5 160 Z " /><path fill="rgb(159,175,160)" stroke="rgb(159,175,160)" stroke-width="1" opacity="1" d="M 275.5 167 L 274.5 169 L 275.5 167 Z " /><path fill="rgb(159,175,160)" stroke="rgb(159,175,160)" stroke-width="1" opacity="1" d="M 341.5 170 L 349.5 179 L 341.5 170 Z " /><path fill="rgb(159,175,160)" stroke="rgb(159,175,160)" stroke-width="1" opacity="1" d="M 270.5 173 L 268.5 176 L 270.5 173 Z " /><path fill="rgb(159,175,160)" stroke="rgb(159,175,160)" stroke-width="1" opacity="1" d="M 265.5 179 L 263.5 182 L 265.5 179 Z " /><path fill="rgb(159,175,160)" stroke="rgb(159,175,160)" stroke-width="1" opacity="1" d="M 259.5 186 L 258.5 188 L 259.5 186 Z " /><path fill="rgb(159,175,160)" stroke="rgb(159,175,160)" stroke-width="1" opacity="1" d="M 254.5 192 L 252.5 195 L 254.5 192 Z " /><path fill="rgb(159,175,160)" stroke="rgb(159,175,160)" stroke-width="1" opacity="1" d="M 364.5 192 L 370.5 199 L 364.5 192 Z " /><path fill="rgb(159,175,160)" stroke="rgb(159,175,160)" stroke-width="1" opacity="1" d="M 248.5 199 L 247.5 201 L 248.5 199 Z " /><path fill="rgb(159,175,160)" stroke="rgb(159,175,160)" stroke-width="1" opacity="1" d="M 42.5 202 L 44.5 205 L 42.5 202 Z " /><path fill="rgb(159,175,160)" stroke="rgb(159,175,160)" stroke-width="1" opacity="1" d="M 243.5 205 L 241.5 208 L 243.5 205 Z " /><path fill="rgb(159,175,160)" stroke="rgb(159,175,160)" stroke-width="1" opacity="1" d="M 48.5 207 L 49.5 209 L 48.5 207 Z " /><path fill="rgb(159,175,160)" stroke="rgb(159,175,160)" stroke-width="1" opacity="1" d="M 53.5 211 L 54.5 213 L 53.5 211 Z " /><path fill="rgb(159,175,160)" stroke="rgb(159,175,160)" stroke-width="1" opacity="1" d="M 238.5 211 L 236.5 214 L 238.5 211 Z " /><path fill="rgb(159,175,160)" stroke="rgb(159,175,160)" stroke-width="1" opacity="1" d="M 58.5 215 L 59.5 217 L 58.5 215 Z " /><path fill="rgb(159,175,160)" stroke="rgb(159,175,160)" stroke-width="1" opacity="1" d="M 232.5 218 L 230.5 221 L 232.5 218 Z " /><path fill="rgb(159,175,160)" stroke="rgb(159,175,160)" stroke-width="1" opacity="1" d="M 63.5 219 L 65.5 222 L 63.5 219 Z " /><path fill="rgb(159,175,160)" stroke="rgb(159,175,160)" stroke-width="1" opacity="1" d="M 69.5 224 L 70.5 226 L 69.5 224 Z " /><path fill="rgb(159,175,160)" stroke="rgb(159,175,160)" stroke-width="1" opacity="1" d="M 227.5 224 L 225.5 227 L 227.5 224 Z " /><path fill="rgb(159,175,160)" stroke="rgb(159,175,160)" stroke-width="1" opacity="1" d="M 74.5 228 L 75.5 230 L 74.5 228 Z " /><path fill="rgb(159,175,160)" stroke="rgb(159,175,160)" stroke-width="1" opacity="1" d="M 221.5 231 L 220.5 233 L 221.5 231 Z " /><path fill="rgb(159,175,160)" stroke="rgb(159,175,160)" stroke-width="1" opacity="1" d="M 79.5 232 L 80.5 234 L 79.5 232 Z " /><path fill="rgb(159,175,160)" stroke="rgb(159,175,160)" stroke-width="1" opacity="1" d="M 84.5 236 L 86.5 239 L 84.5 236 Z " /><path fill="rgb(159,175,160)" stroke="rgb(159,175,160)" stroke-width="1" opacity="1" d="M 216.5 237 L 214.5 240 L 216.5 237 Z " /><path fill="rgb(159,175,160)" stroke="rgb(159,175,160)" stroke-width="1" opacity="1" d="M 90.5 241 L 91.5 243 L 90.5 241 Z " /><path fill="rgb(159,175,160)" stroke="rgb(159,175,160)" stroke-width="1" opacity="1" d="M 210.5 244 L 209.5 246 L 210.5 244 Z " /><path fill="rgb(159,175,160)" stroke="rgb(159,175,160)" stroke-width="1" opacity="1" d="M 95.5 245 L 96.5 247 L 95.5 245 Z " /><path fill="rgb(159,175,160)" stroke="rgb(159,175,160)" stroke-width="1" opacity="1" d="M 100.5 249 L 101.5 251 L 100.5 249 Z " /><path fill="rgb(159,175,160)" stroke="rgb(159,175,160)" stroke-width="1" opacity="1" d="M 205.5 250 L 203.5 253 L 205.5 250 Z " /><path fill="rgb(159,175,160)" stroke="rgb(159,175,160)" stroke-width="1" opacity="1" d="M 105.5 253 L 107.5 256 L 105.5 253 Z " /><path fill="rgb(159,175,160)" stroke="rgb(159,175,160)" stroke-width="1" opacity="1" d="M 200.5 256 L 198.5 259 L 200.5 256 Z " /><path fill="rgb(159,175,160)" stroke="rgb(159,175,160)" stroke-width="1" opacity="1" d="M 111.5 258 L 112.5 260 L 111.5 258 Z " /><path fill="rgb(159,175,160)" stroke="rgb(159,175,160)" stroke-width="1" opacity="1" d="M 116.5 262 L 117.5 264 L 116.5 262 Z " /><path fill="rgb(159,175,160)" stroke="rgb(159,175,160)" stroke-width="1" opacity="1" d="M 37.5 263 L 38 311.5 L 37 311.5 L 37.5 263 Z " /><path fill="rgb(159,175,160)" stroke="rgb(159,175,160)" stroke-width="1" opacity="1" d="M 194.5 263 L 193.5 265 L 194.5 263 Z " /><path fill="rgb(159,175,160)" stroke="rgb(159,175,160)" stroke-width="1" opacity="1" d="M 121.5 266 L 122.5 268 L 121.5 266 Z " /><path fill="rgb(159,175,160)" stroke="rgb(159,175,160)" stroke-width="1" opacity="1" d="M 189.5 269 L 187.5 272 L 189.5 269 Z " /><path fill="rgb(159,175,160)" stroke="rgb(159,175,160)" stroke-width="1" opacity="1" d="M 126.5 270 L 128.5 273 L 126.5 270 Z " /><path fill="rgb(159,175,160)" stroke="rgb(159,175,160)" stroke-width="1" opacity="1" d="M 371.5 272 L 372 315.5 L 371 315.5 L 371.5 272 Z " /><path fill="rgb(159,175,160)" stroke="rgb(159,175,160)" stroke-width="1" opacity="1" d="M 132.5 275 L 133.5 277 L 132.5 275 Z " /><path fill="rgb(159,175,160)" stroke="rgb(159,175,160)" stroke-width="1" opacity="1" d="M 183.5 276 L 182.5 278 L 183.5 276 Z " /><path fill="rgb(159,175,160)" stroke="rgb(159,175,160)" stroke-width="1" opacity="1" d="M 137.5 279 L 138.5 281 L 137.5 279 Z " /><path fill="rgb(159,175,160)" stroke="rgb(159,175,160)" stroke-width="1" opacity="1" d="M 142.5 283 L 143.5 285 L 142.5 283 Z " /><path fill="rgb(159,175,160)" stroke="rgb(159,175,160)" stroke-width="1" opacity="1" d="M 148.5 288 L 149.5 290 L 148.5 288 Z " /><path fill="rgb(159,175,160)" stroke="rgb(159,175,160)" stroke-width="1" opacity="1" d="M 153.5 292 L 154.5 294 L 153.5 292 Z " /><path fill="rgb(159,175,160)" stroke="rgb(159,175,160)" stroke-width="1" opacity="1" d="M 169.5 293 L 168.5 295 L 169.5 293 Z " /><path fill="rgb(159,175,160)" stroke="rgb(159,175,160)" stroke-width="1" opacity="1" d="M 158.5 296 L 159.5 298 L 158.5 296 Z " /><path fill="rgb(159,175,160)" stroke="rgb(159,175,160)" stroke-width="1" opacity="1" d="M 40.5 320 L 41.5 322 L 40.5 320 Z " /><path fill="rgb(159,175,160)" stroke="rgb(159,175,160)" stroke-width="1" opacity="1" d="M 44.5 323 L 45.5 325 L 44.5 323 Z " /><path fill="rgb(159,175,160)" stroke="rgb(159,175,160)" stroke-width="1" opacity="1" d="M 49.5 327 L 50.5 329 L 49.5 327 Z " /><path fill="rgb(159,175,160)" stroke="rgb(159,175,160)" stroke-width="1" opacity="1" d="M 53.5 330 L 54.5 332 L 53.5 330 Z " /><path fill="rgb(159,175,160)" stroke="rgb(159,175,160)" stroke-width="1" opacity="1" d="M 62.5 337 L 63.5 339 L 62.5 337 Z " /><path fill="rgb(159,175,160)" stroke="rgb(159,175,160)" stroke-width="1" opacity="1" d="M 66.5 340 L 67.5 342 L 66.5 340 Z " /><path fill="rgb(159,175,160)" stroke="rgb(159,175,160)" stroke-width="1" opacity="1" d="M 71.5 344 L 72.5 346 L 71.5 344 Z " /><path fill="rgb(159,175,160)" stroke="rgb(159,175,160)" stroke-width="1" opacity="1" d="M 75.5 347 L 76.5 349 L 75.5 347 Z " /><path fill="rgb(159,175,160)" stroke="rgb(159,175,160)" stroke-width="1" opacity="1" d="M 84.5 354 L 85.5 356 L 84.5 354 Z " /><path fill="rgb(159,175,160)" stroke="rgb(159,175,160)" stroke-width="1" opacity="1" d="M 88.5 357 L 89.5 359 L 88.5 357 Z " /><path fill="rgb(159,175,160)" stroke="rgb(159,175,160)" stroke-width="1" opacity="1" d="M 93.5 361 L 94.5 363 L 93.5 361 Z " /><path fill="rgb(159,175,160)" stroke="rgb(159,175,160)" stroke-width="1" opacity="1" d="M 97.5 364 L 98.5 366 L 97.5 364 Z " /><path fill="rgb(159,175,160)" stroke="rgb(159,175,160)" stroke-width="1" opacity="1" d="M 106.5 371 L 107.5 373 L 106.5 371 Z " /><path fill="rgb(159,175,160)" stroke="rgb(159,175,160)" stroke-width="1" opacity="1" d="M 110.5 374 L 111.5 376 L 110.5 374 Z " /><path fill="rgb(159,175,160)" stroke="rgb(159,175,160)" stroke-width="1" opacity="1" d="M 115.5 378 L 116.5 380 L 115.5 378 Z " /><path fill="rgb(159,175,160)" stroke="rgb(159,175,160)" stroke-width="1" opacity="1" d="M 119.5 381 L 120.5 383 L 119.5 381 Z " /><path fill="rgb(159,175,160)" stroke="rgb(159,175,160)" stroke-width="1" opacity="1" d="M 128.5 388 L 129.5 390 L 128.5 388 Z " /><path fill="rgb(159,175,160)" stroke="rgb(159,175,160)" stroke-width="1" opacity="1" d="M 132.5 391 L 133.5 393 L 132.5 391 Z " /><path fill="rgb(159,175,160)" stroke="rgb(159,175,160)" stroke-width="1" opacity="1" d="M 137.5 395 L 138.5 397 L 137.5 395 Z " /><path fill="rgb(159,175,160)" stroke="rgb(159,175,160)" stroke-width="1" opacity="1" d="M 141.5 398 L 142.5 400 L 141.5 398 Z " /><path fill="rgb(159,175,160)" stroke="rgb(159,175,160)" stroke-width="1" opacity="1" d="M 146.5 402 L 147.5 404 L 146.5 402 Z " /><path fill="rgb(159,175,160)" stroke="rgb(159,175,160)" stroke-width="1" opacity="1" d="M 150.5 405 L 151.5 407 L 150.5 405 Z " /><path fill="rgb(159,175,160)" stroke="rgb(159,175,160)" stroke-width="1" opacity="1" d="M 154.5 408 L 155.5 410 L 154.5 408 Z " /><path fill="rgb(159,175,160)" stroke="rgb(159,175,160)" stroke-width="1" opacity="1" d="M 159.5 412 L 160.5 414 L 159.5 412 Z " /><path fill="rgb(159,175,160)" stroke="rgb(159,175,160)" stroke-width="1" opacity="1" d="M 163.5 415 L 164.5 417 L 163.5 415 Z " /><path fill="rgb(159,175,160)" stroke="rgb(159,175,160)" stroke-width="1" opacity="1" d="M 168.5 419 L 169.5 421 L 168.5 419 Z " /><path fill="rgb(249,249,249)" stroke="rgb(249,249,249)" stroke-width="1" opacity="1" d="M 303.5 135 L 371 199.5 L 371 358.5 L 372 365 L 200.5 419 L 197.5 419 L 181.5 425 L 181 280.5 L 303.5 135 Z " /><path fill="rgb(165,214,167)" stroke="rgb(165,214,167)" stroke-width="1" opacity="1" d="M 38 200 L 159.5 298 L 163.5 299 L 170 293.5 L 170.5 292 L 171 420.5 L 168.5 419 L 37 317.5 Q 35.8 312.8 38 311.5 L 38 200 Z " /><path fill="rgb(165,214,167)" stroke="rgb(165,214,167)" stroke-width="1" opacity="1" d="M 371.5 316 L 372 335.5 L 371 335.5 L 371.5 316 Z " /></svg>