<svg width="550" height="550" viewBox="0 0 550 550" fill="none" xmlns="http://www.w3.org/2000/svg">
<circle cx="275" cy="275" r="275" fill="#E7F9F6"/>
<path d="M437.319 377.02L365.381 305.081L362.366 308.096C357.372 313.09 349.267 313.09 344.274 308.096C339.28 303.103 339.28 294.998 344.274 290.004L347.289 286.989L329.197 268.897L268.892 329.203L286.983 347.295L289.999 344.28C294.992 339.287 303.097 339.287 308.091 344.28C313.084 349.274 313.084 357.379 308.091 362.372L305.075 365.387L377.014 437.325C379.197 439.49 381.603 441.414 384.196 443.06L443.054 384.202C441.408 381.609 439.484 379.203 437.319 377.02Z" fill="#1ABC9C"/>
<path d="M443.054 384.201L384.195 443.06C403.987 455.772 430.341 450.037 443.054 430.244C452.064 416.224 452.064 398.228 443.054 384.201Z" fill="#D4DFEF"/>
<path d="M172.403 148.287L166.372 124.164L124.159 100.042L100.036 124.164L124.159 166.378L148.281 172.409L286.984 311.111L311.106 286.989L172.403 148.287Z" fill="#A9BEDF"/>
<path d="M447.77 150.325L407.594 190.501L371.411 178.44L359.35 142.257L399.526 102.081C364.175 93.059 328.208 114.407 319.187 149.758C316.455 160.474 316.455 171.703 319.187 182.419L182.414 319.192C146.701 310.128 110.403 331.724 101.339 367.436C92.2751 403.149 113.871 439.447 149.583 448.511C185.296 457.575 221.594 435.98 230.658 400.267C233.39 389.496 233.39 378.207 230.658 367.437L367.431 230.664C402.806 239.661 438.773 218.278 447.77 182.902C450.49 172.216 450.49 161.017 447.77 150.325ZM184.464 413.631H148.281L130.189 383.478L148.281 353.325H184.464L202.556 383.478L184.464 413.631Z" fill="#D4DFEF"/>
<path d="M449.809 407.172C449.803 399.025 447.457 391.052 443.054 384.201L425.687 401.569V445.538C440.425 438.44 449.803 423.533 449.809 407.172Z" fill="#A9BEDF"/>
<path d="M94.8019 127.18L118.924 169.394C119.738 170.824 121.101 171.854 122.693 172.252L145.199 177.879L230.796 264.076L239.323 254.948L152.52 168.145C151.748 167.373 150.783 166.824 149.722 166.559L128.096 161.132L107.556 125.172L125.166 107.563L161.144 128.121L166.572 149.747C166.837 150.808 167.386 151.779 168.158 152.551L255.561 239.954L264.088 231.427L177.891 145.23L172.264 122.736C171.866 121.138 170.835 119.775 169.406 118.961L127.192 94.8381C124.834 93.4992 121.873 93.8973 119.956 95.8089L95.8328 119.931C93.8911 121.837 93.4691 124.81 94.8019 127.18Z" fill="#2C3E50"/>
<path d="M336.993 204.327L204.322 336.998L212.851 345.526L345.521 212.856L336.993 204.327Z" fill="#2C3E50"/>
<path d="M189.633 350.219C188.541 348.404 186.581 347.294 184.464 347.294H148.281C146.164 347.294 144.205 348.403 143.113 350.219L125.021 380.372C123.876 382.284 123.876 384.672 125.021 386.583L143.113 416.736C144.205 418.551 146.165 419.662 148.281 419.662H184.464C186.581 419.662 188.541 418.552 189.633 416.736L207.724 386.583C208.87 384.672 208.87 382.284 207.724 380.372L189.633 350.219ZM181.051 407.6H151.694L137.221 383.478L151.694 359.356H181.051L195.525 383.478L181.051 407.6Z" fill="#2C3E50"/>
<path d="M383.472 238.745C423.304 238.878 455.7 206.698 455.833 166.867C455.851 160.806 455.109 154.763 453.62 148.889C452.818 145.657 449.543 143.691 446.311 144.493C445.249 144.759 444.278 145.307 443.506 146.08L405.966 183.596L376.181 173.669L366.249 143.891L403.789 106.345C406.141 103.987 406.141 100.169 403.783 97.8173C403.005 97.0392 402.028 96.4904 400.961 96.2251C362.335 86.4437 323.094 109.824 313.313 148.45C311.829 154.311 311.088 160.336 311.106 166.378C311.118 171.124 311.613 175.858 312.571 180.508L180.503 312.577C175.853 311.619 171.119 311.13 166.373 311.112C126.409 311.112 94.0068 343.514 94.0068 383.478C94.0068 423.443 126.409 455.845 166.373 455.845C206.338 455.845 238.74 423.443 238.74 383.478C238.728 378.732 238.233 373.998 237.274 369.349L268.892 337.731L282.72 351.559C285.072 353.911 288.895 353.911 291.247 351.559L294.262 348.544C296.91 345.915 301.179 345.915 303.827 348.544C306.468 351.179 306.475 355.455 303.839 358.096C303.833 358.102 303.833 358.102 303.827 358.108L300.812 361.124C298.46 363.475 298.46 367.299 300.812 369.651L372.75 441.589C391.674 460.682 422.49 460.821 441.583 441.902C460.675 422.978 460.814 392.163 441.896 373.07C441.793 372.967 441.691 372.865 441.583 372.757L369.644 300.818C367.293 298.466 363.469 298.466 361.117 300.818L358.102 303.833C355.454 306.462 351.185 306.462 348.537 303.833C345.896 301.198 345.89 296.922 348.525 294.28C348.531 294.274 348.531 294.274 348.537 294.268L351.552 291.253C353.904 288.901 353.904 285.077 351.552 282.726L337.724 268.898L369.342 237.28C373.992 238.239 378.726 238.727 383.472 238.745ZM407.166 443.783C402.782 443.777 398.44 442.987 394.339 441.444L441.438 394.345C448.548 413.251 438.984 434.34 420.078 441.444C415.947 442.993 411.575 443.789 407.166 443.783ZM338.847 287.05C332.171 295.016 333.214 306.89 341.18 313.566C348.182 319.434 358.385 319.428 365.381 313.548L433.056 381.283C433.792 382.019 434.479 382.797 435.142 383.587L383.581 435.148C382.791 434.485 382.013 433.797 381.277 433.062L313.548 365.327C320.224 357.36 319.181 345.486 311.215 338.81C304.213 332.943 294.01 332.949 287.014 338.828L277.365 329.18L329.198 277.426L338.847 287.05ZM363.197 226.394L226.395 363.173C224.893 364.669 224.29 366.846 224.802 368.902C233.076 401.395 213.441 434.442 180.948 442.716C148.455 450.984 115.408 431.354 107.134 398.862C98.8603 366.369 118.496 333.322 150.988 325.048C160.818 322.545 171.119 322.545 180.948 325.048C183.004 325.549 185.175 324.945 186.677 323.456L323.45 186.677C324.945 185.181 325.548 183.004 325.036 180.948C316.816 148.835 336.186 116.143 368.299 107.93C374.366 106.375 380.643 105.783 386.897 106.169L355.086 137.992C353.469 139.609 352.903 141.997 353.626 144.162L365.687 180.345C366.29 182.148 367.702 183.56 369.504 184.156L405.688 196.217C407.853 196.941 410.241 196.38 411.857 194.764L443.668 162.953C443.741 164.105 443.777 165.244 443.777 166.378C443.946 199.516 417.225 226.514 384.087 226.683C378.96 226.707 373.859 226.08 368.896 224.808C366.839 224.295 364.662 224.898 363.167 226.394L363.197 226.394Z" fill="#2C3E50"/>
<path d="M345.511 337.003L336.982 345.531L397.286 405.835L405.814 397.306L345.511 337.003Z" fill="#2C3E50"/>
</svg>
