<svg width="550" height="550" viewBox="0 0 550 550" fill="none" xmlns="http://www.w3.org/2000/svg">
<circle cx="275" cy="275" r="275" fill="#E7F9F6"/>
<path d="M131 179H419V403H131V179Z" fill="#547DBE"/>
<path d="M171 179H379V403H171V179Z" fill="#0082AA"/>
<path d="M435 171V187C435 191.4 431.4 195 427 195H123C118.6 195 115 191.4 115 187V171C115 166.6 118.6 163 123 163H427C431.4 163 435 166.6 435 171Z" fill="#3D566F"/>
<path d="M171 163H379V195H171V163Z" fill="#2C3E50"/>
<path d="M179 115H371V435H179V115Z" fill="#1ABC9C"/>
<path d="M379 147H171C168.878 147 166.843 146.157 165.343 144.657C163.843 143.157 163 141.122 163 139V123C163 120.878 163.843 118.843 165.343 117.343C166.843 115.843 168.878 115 171 115H379C381.122 115 383.157 115.843 384.657 117.343C386.157 118.843 387 120.878 387 123V139C387 141.122 386.157 143.157 384.657 144.657C383.157 146.157 381.122 147 379 147Z" fill="#3D566F"/>
<path d="M467 435H83V411C83 408.878 83.8429 406.843 85.3431 405.343C86.8434 403.843 88.8783 403 91 403H459C461.122 403 463.157 403.843 464.657 405.343C466.157 406.843 467 408.878 467 411V435Z" fill="#2C3E50"/>
<path d="M435 403H115V379C115 376.878 115.843 374.843 117.343 373.343C118.843 371.843 120.878 371 123 371H427C429.122 371 431.157 371.843 432.657 373.343C434.157 374.843 435 376.878 435 379V403Z" fill="#3D566F"/>
<path d="M235 195H219C216.878 195 214.843 194.157 213.343 192.657C211.843 191.157 211 189.122 211 187V171C211 168.878 211.843 166.843 213.343 165.343C214.843 163.843 216.878 163 219 163H235C237.122 163 239.157 163.843 240.657 165.343C242.157 166.843 243 168.878 243 171V187C243 189.122 242.157 191.157 240.657 192.657C239.157 194.157 237.122 195 235 195ZM283 195H267C264.878 195 262.843 194.157 261.343 192.657C259.843 191.157 259 189.122 259 187V171C259 168.878 259.843 166.843 261.343 165.343C262.843 163.843 264.878 163 267 163H283C285.122 163 287.157 163.843 288.657 165.343C290.157 166.843 291 168.878 291 171V187C291 189.122 290.157 191.157 288.657 192.657C287.157 194.157 285.122 195 283 195ZM331 195H315C312.878 195 310.843 194.157 309.343 192.657C307.843 191.157 307 189.122 307 187V171C307 168.878 307.843 166.843 309.343 165.343C310.843 163.843 312.878 163 315 163H331C333.122 163 335.157 163.843 336.657 165.343C338.157 166.843 339 168.878 339 171V187C339 189.122 338.157 191.157 336.657 192.657C335.157 194.157 333.122 195 331 195ZM235 243H219C216.878 243 214.843 242.157 213.343 240.657C211.843 239.157 211 237.122 211 235V219C211 216.878 211.843 214.843 213.343 213.343C214.843 211.843 216.878 211 219 211H235C237.122 211 239.157 211.843 240.657 213.343C242.157 214.843 243 216.878 243 219V235C243 237.122 242.157 239.157 240.657 240.657C239.157 242.157 237.122 243 235 243ZM283 243H267C264.878 243 262.843 242.157 261.343 240.657C259.843 239.157 259 237.122 259 235V219C259 216.878 259.843 214.843 261.343 213.343C262.843 211.843 264.878 211 267 211H283C285.122 211 287.157 211.843 288.657 213.343C290.157 214.843 291 216.878 291 219V235C291 237.122 290.157 239.157 288.657 240.657C287.157 242.157 285.122 243 283 243ZM331 243H315C312.878 243 310.843 242.157 309.343 240.657C307.843 239.157 307 237.122 307 235V219C307 216.878 307.843 214.843 309.343 213.343C310.843 211.843 312.878 211 315 211H331C333.122 211 335.157 211.843 336.657 213.343C338.157 214.843 339 216.878 339 219V235C339 237.122 338.157 239.157 336.657 240.657C335.157 242.157 333.122 243 331 243ZM235 291H219C216.878 291 214.843 290.157 213.343 288.657C211.843 287.157 211 285.122 211 283V267C211 264.878 211.843 262.843 213.343 261.343C214.843 259.843 216.878 259 219 259H235C237.122 259 239.157 259.843 240.657 261.343C242.157 262.843 243 264.878 243 267V283C243 285.122 242.157 287.157 240.657 288.657C239.157 290.157 237.122 291 235 291ZM283 291H267C264.878 291 262.843 290.157 261.343 288.657C259.843 287.157 259 285.122 259 283V267C259 264.878 259.843 262.843 261.343 261.343C262.843 259.843 264.878 259 267 259H283C285.122 259 287.157 259.843 288.657 261.343C290.157 262.843 291 264.878 291 267V283C291 285.122 290.157 287.157 288.657 288.657C287.157 290.157 285.122 291 283 291ZM331 291H315C312.878 291 310.843 290.157 309.343 288.657C307.843 287.157 307 285.122 307 283V267C307 264.878 307.843 262.843 309.343 261.343C310.843 259.843 312.878 259 315 259H331C333.122 259 335.157 259.843 336.657 261.343C338.157 262.843 339 264.878 339 267V283C339 285.122 338.157 287.157 336.657 288.657C335.157 290.157 333.122 291 331 291ZM307 371H243V315C243 312.878 243.843 310.843 245.343 309.343C246.843 307.843 248.878 307 251 307H299C301.122 307 303.157 307.843 304.657 309.343C306.157 310.843 307 312.878 307 315V371Z" fill="#F0F0F0"/>
</svg>